<?xml version="1.0" encoding="utf-8"?>
<!-- Svg Vector Icons : http://www.onlinewebfonts.com/icon -->
<!DOCTYPE svg PUBLIC "-//W3C//DTD SVG 1.1//EN" "http://www.w3.org/Graphics/SVG/1.1/DTD/svg11.dtd">
<svg version="1.1" xmlns="http://www.w3.org/2000/svg" xmlns:xlink="http://www.w3.org/1999/xlink" x="0px" y="0px" viewBox="0 0 1000 1000" enable-background="new 0 0 1000 1000" xml:space="preserve">
<metadata> Svg Vector Icons : http://www.onlinewebfonts.com/icon </metadata>
<g><path d="M629.6,469.8c49-42.5,80.7-108.2,80.7-182.1C710.3,159.9,616,56,500.2,56c-115.8,0-210.1,103.9-210.1,231.6c0,73.9,31.7,139.7,80.7,182.1c-129.1,56.9-220.7,196-220.7,358.4v77.2c0,21.3,15.7,38.6,35,38.6h630.2c19.4,0,35-17.3,35-38.6v-77.2C850.3,665.7,758.7,526.7,629.6,469.8z M360.1,287.7c0-85.2,62.8-154.4,140.1-154.4c77.2,0,140.1,69.3,140.1,154.4c0,85.2-62.8,154.4-140.1,154.4C422.9,442.1,360.1,372.8,360.1,287.7z M780.3,866.8H220.1v-38.6c0-170.3,125.7-308.9,280.1-308.9c154.4,0,280.1,138.6,280.1,308.9V866.8z"/><path d="M238.4,505.5l6.8-1.8c14.7-5.4,25.1-19.6,25.1-36.3c0-16.1-9.8-29.9-23.6-35.7c-37.5-18.8-61.7-60-61.7-105.4c0-51.5,30.7-94.8,72.9-109.9c7.4-25.1,18.5-48.4,32.8-68.9c2.5-4.5,5.1-9,7.8-13.3c-2.8-0.2-5.5-0.9-8.4-0.9c-96.5,0-175.1,86.6-175.1,193.1c0,48.9,16.9,94.7,45.5,129.5C69.4,507.9,10,612,10,729.8v59.7c0,21.3,15.7,38.6,35,38.6h62.7c0-26.4,2.4-52.3,7.1-77.2H80v-21.1C80,623.1,145.1,531.5,238.4,505.5z"/><path d="M839.4,455.8C868.1,421,885,375.2,885,326.3c0-106.5-78.5-193.1-175.1-193.1c-2.9,0-5.6,0.8-8.4,0.9c2.7,4.4,5.3,8.8,7.8,13.3c14.2,20.6,25.4,43.8,32.8,68.9c42.2,15,72.9,58.4,72.9,109.9c0,45.4-24.2,86.7-61.7,105.4c-13.9,5.8-23.6,19.6-23.6,35.7c0,16.7,10.5,30.9,25.1,36.3l6.8,1.8c93.3,26,158.4,117.6,158.4,224.3V751h-34.8c4.6,25,7.1,50.8,7.1,77.2H955c19.4,0,35-17.3,35-38.6v-59.7C990,612,930.6,507.9,839.4,455.8z"/></g>
</svg>