<?xml version="1.0" encoding="utf-8"?>
<!-- Svg Vector Icons : http://www.onlinewebfonts.com/icon -->
<!DOCTYPE svg PUBLIC "-//W3C//DTD SVG 1.1//EN" "http://www.w3.org/Graphics/SVG/1.1/DTD/svg11.dtd">
<svg version="1.1" xmlns="http://www.w3.org/2000/svg" xmlns:xlink="http://www.w3.org/1999/xlink" x="0px" y="0px" viewBox="0 0 1000 1000" enable-background="new 0 0 1000 1000" xml:space="preserve">
<metadata> Svg Vector Icons : http://www.onlinewebfonts.com/icon </metadata>
<g><g transform="translate(0.000000,511.000000) scale(0.100000,-0.100000)"><path d="M8091.1,3948.7c-59.3-61.2-239-256.2-399.7-436c-355.7-395.8-728.5-778.3-829.9-852.8c-53.5-40.2-95.6-55.4-153-55.4c-44,0-101.3-15.3-130-34.4c-49.7-32.5-837.5-931.2-837.5-956.1c0-7.7,149.1-168.3,330.8-355.7l330.8-344.2l80.3,32.5c49.7,21,133.8,32.5,219.9,32.5c191.2,0,286.8-49.7,495.3-252.4c168.3-166.4,292.6-244.8,384.3-244.8c28.7,0,107.1,28.7,174,65c162.5,86,284.9,101.4,491.4,59.3c187.4-38.2,378.6-30.6,474.2,17.2c34.4,19.1,219.9,195,409.2,390.1c191.2,197,441.7,455.1,558.4,573.7l210.3,216.1l-63.1,57.4c-45.9,42.1-80.3,55.5-137.7,55.5c-84.1,0-187.4,36.3-256.2,89.9c-89.9,70.7-598.5,615.7-738.1,791.6c-319.3,399.6-418.8,617.6-420.7,919.8c0,174-36.3,340.4-74.6,340.4C8202,4057.7,8148.4,4008,8091.1,3948.7z M7775.6,2793.8c63.1-28.7,1095.7-1206.6,1132-1288.8c36.3-89.9,32.5-154.9-13.4-258.1c-47.8-105.2-101.4-164.5-189.3-210.3c-175.9-89.9-307.9-66.9-451.3,80.3c-195,200.8-1005.8,1135.8-1023,1177.9c-24.9,66.9-21.1,206.5,9.6,279.2C7322.4,2770.8,7586.2,2879.8,7775.6,2793.8z M6423.6,1854.9c80.3-74.6,59.3-91.8-109-91.8c-166.4,0-191.2,19.1-114.7,95.6C6253.4,1912.2,6366.3,1910.3,6423.6,1854.9z M6467.6,1701.9c0-11.5-19.1-42.1-42.1-66.9c-76.5-82.2-263.9-38.2-263.9,61.2c0,22.9,30.6,28.7,153,28.7C6419.8,1724.8,6467.6,1717.2,6467.6,1701.9z M7595.8,1132.1c76.5-76.5,51.6-95.6-114.7-95.6s-181.7,11.5-105.2,86C7435.2,1183.7,7540.3,1187.5,7595.8,1132.1z M7630.2,937c-74.6-112.8-221.8-109-284.9,7.7c-17.2,32.5-7.7,34.4,147.2,34.4H7657L7630.2,937z"/><path d="M2872.7,3443.9c-204.6-22.9-426.4-70.7-548.8-116.7c-193.1-70.7-657.8-407.3-1013.5-732.4c-195-179.7-250.5-284.9-271.5-510.6c-9.6-101.3-30.6-187.4-57.4-239c-88-172.1-271.5-296.4-472.3-323.2c-95.6-11.5-109-21-254.3-170.2c-86-86-154.9-174-154.9-193.1c0-55.5,667.4-715.2,722.8-715.2c28.7,0,99.4,53.5,208.4,160.6L1197.6,763l13.4,143.4c17.2,191.2,82.2,315.5,254.3,487.6c105.2,105.2,154.9,139.6,210.3,151.1c156.8,28.7,405.4-68.8,619.6-240.9c137.7-110.9,225.6-126.2,304-53.5l45.9,42.1l558.4-558.4L3761.9,176l-76.5-76.5L3610.8,23l57.4-61.2c206.5-225.6,424.5-468.5,436-489.5c9.6-15.3-363.3-487.6-1044.1-1323.2C2478.8-2566.1,1995-3174.2,1987.3-3199.1c-24.9-70.8,5.7-135.8,156.8-340.4l135.8-183.6l175.9-53.5l177.8-55.4l5.7,101.3l5.7,101.3l51.6-26.8c28.7-13.4,72.7-32.5,97.5-40.1c44-13.4,45.9-11.5,36.3,84.1c-5.7,53.5-5.7,97.5-1.9,97.5c3.8,0,30.6-11.5,59.3-26.8c28.7-13.4,70.8-32.5,93.7-38.2c40.2-13.4,42.1-9.6,30.6,86c-9.6,82.2-7.6,97.5,15.3,89.9c15.3-7.6,59.3-24.9,99.4-42.1l70.8-30.6v95.6c0,51.6,3.8,95.6,7.6,95.6c3.8,0,49.7-17.2,99.4-38.2l89.9-40.1l-11.5,97.5c-5.7,51.6-3.8,95.6,3.8,95.6c9.6,0,47.8-13.4,84.1-28.7c38.2-15.3,74.6-28.7,80.3-28.7s9.6,44,9.6,95.6v97.5l53.5-26.8c28.7-15.3,70.8-34.4,95.6-40.2c40.2-13.4,42.1-9.6,42.1,84.1v97.5l53.5-26.8c28.7-15.3,70.8-34.4,95.6-42.1c42.1-11.5,44-11.5,30.6,88c-11.5,82.2-7.6,97.5,13.4,89.9c15.3-7.6,59.3-24.8,99.4-42.1l70.8-30.6v95.6c0,51.6,3.8,95.6,7.6,95.6c3.8,0,49.7-17.2,97.5-38.2l91.8-38.3l-9.6,95.6c-5.7,51.6-3.8,95.6,3.8,95.6c7.6,0,45.9-13.4,82.2-28.7c38.2-15.3,76.5-28.7,84.1-28.7c7.6,0,11.5,44,7.6,97.5l-5.7,97.5l53.5-28.7c30.6-15.3,74.6-34.4,99.4-40.2c40.2-13.4,42.1-9.6,42.1,84.1v97.5l53.5-26.8c28.7-15.3,72.7-34.4,97.5-42.1c44-13.4,44-11.5,30.6,86c-11.5,82.2-9.6,99.4,11.5,89.9c15.3-5.7,59.3-22.9,99.4-40.2l70.7-30.6v95.6c0,51.6,3.8,95.6,7.7,95.6c3.8,0,47.8-17.2,97.5-38.2l89.9-38.2l-7.7,95.6c-1.9,51.6,0,95.6,5.7,95.6c7.7,0,44-13.4,80.3-28.7c93.7-38.3,114.7-36.3,99.4,9.6c-5.7,21-7.7,38.2-1.9,38.2c3.8,0,304-325.1,663.5-720.9c359.5-397.7,659.7-724.7,665.5-728.5c5.7-1.9,229.5,214.2,493.3,478l481.9,483.8L7108.2-1872c-587,566-602.3,583.2-602.3,655.9v72.7l76.5-38.2c112.8-57.4,122.4-53.5,107.1,57.4c-7.6,53.5-7.6,95.6-1.9,95.6s44-17.2,86-38.2c42.1-21,80.3-38.2,86.1-38.2s9.6,44,9.6,97.5c0,70.8,5.7,95.6,24.9,88c11.5-5.7,55.5-22.9,95.6-40.2l70.8-30.6v97.5c0,70.7,5.7,95.6,24.9,88c11.5-5.7,55.5-22.9,95.6-40.2l70.8-30.6l-11.5,107.1l-13.4,107.1l78.4-40.2c44-22.9,88-40.1,99.4-40.1c9.6,0,19.1,42.1,19.1,95.6v95.6l76.5-38.2c112.8-57.4,122.4-51.6,109,57.4c-5.7,53.5-7.7,95.6-1.9,95.6c5.8,0,42.1-17.2,84.1-38.2c42.1-21,82.2-38.2,89.9-38.2c7.6,0,11.5,42.1,9.6,95.6c-3.8,51.6-1.9,95.6,3.8,95.6c7.6,0,45.9-17.2,88-38.2s80.3-38.3,86-38.3s9.6,44,9.6,95.6c0,53.5,3.8,95.6,9.6,95.6s44-17.2,86.1-38.2c42.1-21,80.3-38.2,87.9-38.2c5.8,0,5.8,42.1-1.9,95.6c-15.3,109-5.7,114.7,105.2,57.4l76.5-38.2V-63V42.1L8418,3.9c40.1-21,84.1-38.2,95.6-38.2c11.5,0,19.1,45.9,19.1,107.1c0,103.3-5.7,114.7-109,242.9c-126.2,153-187.4,185.5-348,185.5c-93.7,0-141.5-13.4-273.4-78.4c-260-126.2-372.9-95.6-665.4,185.5c-101.3,95.6-200.8,183.6-225.6,197c-128.1,68.8-346.1,55.4-455.1-26.8l-61.2-47.8l-336.6,349.9c-208.4,214.2-342.3,340.4-349.9,327c-9.6-11.5-208.4-258.1-445.5-548.8l-430.2-529.7l-219.9,219.9c-120.5,120.5-229.5,219.9-239,219.9s-45.9-26.8-80.3-61.2l-65-61.2L3672,1202.8l-558.4,558.4l70.7,76.5c116.6,128.1,105.2,168.3-114.7,426.4c-198.9,233.3-252.4,328.9-254.3,441.7c0,59.3,13.4,84.1,70.8,137.7c206.5,189.3,594.7,273.4,1172.2,250.5c174-5.7,401.6-22.9,506.7-40.2c105.2-15.3,202.7-28.7,216.1-28.7c15.3,0,22.9,34.4,22.9,114.7v112.8l-97.5,28.7c-198.9,59.3-533.5,126.2-782.1,153C3649,3466.9,3115.5,3470.7,2872.7,3443.9z M2593.5-3076.7c86-101.3,47.8-244.8-74.6-284.9c-128.1-42.1-239,40.2-239,174C2279.9-3027,2488.3-2952.4,2593.5-3076.7z"/><path d="M7299.4-3017.4c-262-262-470.4-483.8-460.8-491.4c7.6-7.6,128.1-86,265.8-172.1l252.4-156.8l380.5,380.5l380.5,378.6l-147.2,246.7c-82.2,133.8-158.7,256.2-172.1,267.7C7781.3-2545.1,7672.3-2644.5,7299.4-3017.4z"/></g></g>
</svg>